<svg width="25" height="25" viewBox="0 0 25 25" fill="none" xmlns="http://www.w3.org/2000/svg">
<path d="M12.5 3.01996C7 3.01996 2.5 7.50996 2.5 13.04C2.5 18.04 6.16 22.19 10.94 22.94V15.94H8.4V13.04H10.94V10.83C10.94 8.31996 12.43 6.93996 14.72 6.93996C15.81 6.93996 16.95 7.12996 16.95 7.12996V9.59996H15.69C14.45 9.59996 14.06 10.37 14.06 11.16V13.04H16.84L16.39 15.94H14.06V22.94C16.4164 22.5678 18.5622 21.3655 20.1099 19.55C21.6576 17.7346 22.5054 15.4256 22.5 13.04C22.5 7.50996 18 3.01996 12.5 3.01996Z" fill="#497CE2"/>
</svg>
