<svg width="25" height="25" viewBox="0 0 25 25" fill="none" xmlns="http://www.w3.org/2000/svg">
<path d="M12.5 2.97998C11.1868 2.97998 9.88642 3.23864 8.67317 3.74119C7.45991 4.24373 6.35752 4.98033 5.42893 5.90891C3.55357 7.78428 2.5 10.3278 2.5 12.98C2.5 17.4 5.37 21.15 9.34 22.48C9.84 22.56 10 22.25 10 21.98V20.29C7.23 20.89 6.64 18.95 6.64 18.95C6.18 17.79 5.53 17.48 5.53 17.48C4.62 16.86 5.6 16.88 5.6 16.88C6.6 16.95 7.13 17.91 7.13 17.91C8 19.43 9.47 18.98 10.04 18.74C10.13 18.09 10.39 17.65 10.67 17.4C8.45 17.15 6.12 16.29 6.12 12.48C6.12 11.37 6.5 10.48 7.15 9.76998C7.05 9.51998 6.7 8.47998 7.25 7.12998C7.25 7.12998 8.09 6.85998 10 8.14998C10.79 7.92998 11.65 7.81998 12.5 7.81998C13.35 7.81998 14.21 7.92998 15 8.14998C16.91 6.85998 17.75 7.12998 17.75 7.12998C18.3 8.47998 17.95 9.51998 17.85 9.76998C18.5 10.48 18.88 11.37 18.88 12.48C18.88 16.3 16.54 17.14 14.31 17.39C14.67 17.7 15 18.31 15 19.24V21.98C15 22.25 15.16 22.57 15.67 22.48C19.64 21.14 22.5 17.4 22.5 12.98C22.5 11.6668 22.2413 10.3664 21.7388 9.15315C21.2362 7.93989 20.4997 6.8375 19.5711 5.90891C18.6425 4.98033 17.5401 4.24373 16.3268 3.74119C15.1136 3.23864 13.8132 2.97998 12.5 2.97998Z" fill="#272727"/>
</svg>
