<svg width="48" height="26" viewBox="0 0 48 26" fill="none" xmlns="http://www.w3.org/2000/svg">
<g id="SVG">
<path id="Vector" d="M29.3036 8.14869C28.1035 6.06216 28.8188 3.39228 30.9014 2.18535C32.984 0.978414 35.6452 1.69146 36.8453 3.77799L44.9399 17.8513C46.14 19.9378 45.4246 22.6077 43.3421 23.8146C41.2595 25.0216 38.5983 24.3085 37.3982 22.222L29.3036 8.14869Z" fill="#666CFF"/>
<path id="Vector_2" d="M29.3925 8.14869C28.1924 6.06216 28.9078 3.39228 30.9904 2.18535C33.073 0.978414 35.7341 1.69146 36.9342 3.77799L45.0288 17.8513C46.229 19.9378 45.5136 22.6077 43.431 23.8146C41.3484 25.0216 38.6872 24.3085 37.4871 22.222L29.3925 8.14869Z" fill="url(#paint0_linear_1_8)" fill-opacity="0.4"/>
<path id="Vector_3" d="M36.1542 8.14869C37.3543 6.06216 36.6389 3.39228 34.5563 2.18535C32.4737 0.978414 29.8126 1.69146 28.6125 3.77799L20.5178 17.8513C19.3177 19.9378 20.0331 22.6077 22.1157 23.8146C24.1983 25.0216 26.8595 24.3085 28.0596 22.222L36.1542 8.14869Z" fill="#666CFF"/>
<path id="Vector_4" d="M11.7322 8.14869C10.532 6.06216 11.2474 3.39228 13.33 2.18535C15.4126 0.978414 18.0738 1.69146 19.2739 3.77799L27.3685 17.8513C28.5686 19.9378 27.8532 22.6077 25.7706 23.8146C23.6881 25.0216 21.0269 24.3085 19.8268 22.222L11.7322 8.14869Z" fill="#666CFF"/>
<path id="Vector_5" d="M11.7322 8.14869C10.532 6.06216 11.2474 3.39228 13.33 2.18535C15.4126 0.978414 18.0738 1.69146 19.2739 3.77799L27.3685 17.8513C28.5686 19.9378 27.8532 22.6077 25.7706 23.8146C23.6881 25.0216 21.0269 24.3085 19.8268 22.222L11.7322 8.14869Z" fill="url(#paint1_linear_1_8)" fill-opacity="0.4"/>
<path id="Vector_6" d="M18.5827 8.14869C19.7828 6.06216 19.0674 3.39228 16.9848 2.18535C14.9022 0.978414 12.241 1.69146 11.0409 3.77799L2.94631 17.8513C1.7462 19.9378 2.46158 22.6077 4.54418 23.8146C6.62677 25.0216 9.28793 24.3085 10.488 22.222L18.5827 8.14869Z" fill="#666CFF"/>
</g>
<defs>
<linearGradient id="paint0_linear_1_8" x1="30.9904" y1="2.18535" x2="43.5016" y2="23.7737" gradientUnits="userSpaceOnUse">
<stop/>
<stop offset="1" stop-opacity="0"/>
</linearGradient>
<linearGradient id="paint1_linear_1_8" x1="13.33" y1="2.18535" x2="25.8412" y2="23.7737" gradientUnits="userSpaceOnUse">
<stop/>
<stop offset="1" stop-opacity="0"/>
</linearGradient>
</defs>
</svg>
