<svg width="25" height="25" viewBox="0 0 25 25" fill="none" xmlns="http://www.w3.org/2000/svg">
<rect width="25" height="25" fill="#1E1E1E"/>
<g id="demos.pixinvent.com by html.to.design &#226;&#157;&#164;&#239;&#184;&#143; FREE version - 25/12/2023, 20:33:12 EET">
<rect width="1920" height="1080" transform="translate(-1662.5 -788)" fill="#F7F7F9"/>
<g id="div.content-right" clip-path="url(#clip0_0_1)">
<g id="div.MuiBox-root">
<rect width="450" height="1080" transform="translate(-192.5 -788)" fill="white"/>
<g id="Form">
<g id="Link &#226;&#134;&#146; Img">
<path id="Vector" d="M22.96 6.97998C22.19 7.32998 21.36 7.55998 20.5 7.66998C21.38 7.13998 22.06 6.29998 22.38 5.28998C21.55 5.78998 20.63 6.13998 19.66 6.33998C18.87 5.47998 17.76 4.97998 16.5 4.97998C14.15 4.97998 12.23 6.89998 12.23 9.26998C12.23 9.60998 12.27 9.93998 12.34 10.25C8.77998 10.07 5.60998 8.35998 3.49998 5.76998C3.12998 6.39998 2.91998 7.13998 2.91998 7.91998C2.91998 9.40998 3.66998 10.73 4.82998 11.48C4.11998 11.48 3.45998 11.28 2.87998 10.98V11.01C2.87998 13.09 4.35998 14.83 6.31998 15.22C5.69071 15.3922 5.03007 15.4162 4.38998 15.29C4.66158 16.1425 5.19351 16.8884 5.91099 17.4229C6.62847 17.9574 7.49543 18.2537 8.38998 18.27C6.87361 19.4704 4.99397 20.1193 3.05998 20.11C2.71998 20.11 2.37998 20.09 2.03998 20.05C3.93998 21.27 6.19998 21.98 8.61998 21.98C16.5 21.98 20.83 15.44 20.83 9.76998C20.83 9.57998 20.83 9.39998 20.82 9.20998C21.66 8.60998 22.38 7.84998 22.96 6.97998Z" fill="#1DA1F2"/>
</g>
</g>
</g>
</g>
</g>
<defs>
<clipPath id="clip0_0_1">
<rect width="1920" height="1080" fill="white" transform="translate(-1662.5 -788)"/>
</clipPath>
</defs>
</svg>
